# Alias OBJ Model File
# Exported from SketchUp, (c) 2000-2012 Trimble Navigation Limited
# File units = meters

mtllib cone.mtl

g Mesh1 Model

usemtl FrontColor
v 1 0 -0
vt 5.13883 -27.4819
vn -0.707107 -0.707107 -2.92694e-16
v -4.51195e-17 1 -3.38396e-16
vt -1.38846e-14 27.9582
vn 7.22737e-17 -1 -1.29764e-16
v 0.965926 0 -0.258819
vt -5.13883 -27.4819
vn -0.683013 -0.707107 0.183013
f 1/1/1 2/2/2 3/3/3

v 0.965926 0 0.258819
vn -0.683013 -0.707107 -0.183013
vt -1.29768e-14 27.9582
vn 4.59924e-17 -1 -1.3962e-16
f 4/1/4 2/4/5 1/3/1

v 0.866025 0 0.5
vn -0.612372 -0.707107 -0.353553
vt -1.16288e-14 27.9582
vn 2.62814e-17 -1 -1.47833e-16
f 5/1/6 2/5/7 4/3/4

v 0.707107 0 0.707107
vn -0.5 -0.707107 -0.5
vt -7.71186e-15 27.9582
vn 3.28517e-17 -1 -1.60973e-16
f 6/1/8 2/6/9 5/3/6

v 0.5 0 0.866025
vn -0.353553 -0.707107 -0.612372
vt -4.9247e-15 27.9582
vn 5.58479e-17 -1 -1.37977e-16
f 7/1/10 2/7/11 6/3/8

v 0.258819 0 0.965926
vn -0.183013 -0.707107 -0.683013
vt -3.45723e-15 27.9582
vn 5.58479e-17 -1 -4.59924e-17
f 8/1/12 2/8/13 7/3/10

v -1.83697e-16 0 1
vn 3.83289e-16 -0.707107 -0.707107
vt 2.22017e-17 27.9582
vn 2.87452e-17 -1 -6.57034e-17
f 9/1/14 2/9/15 8/3/12

v -0.258819 0 0.965926
vn 0.183013 -0.707107 -0.683013
vt 3.05603e-15 27.9582
vn 8.21292e-18 -1 -1.31407e-16
f 10/1/16 2/10/17 9/3/14

v -0.5 0 0.866025
vn 0.353553 -0.707107 -0.612372
vt 7.62769e-15 27.9582
vn 3.61369e-17 -1 -1.44547e-16
f 11/1/18 2/11/19 10/3/16

v -0.707107 0 0.707107
vn 0.5 -0.707107 -0.5
vt 1.1296e-14 27.9582
vn 3.9422e-17 -1 -1.05125e-16
f 12/1/20 2/12/21 11/3/18

v -0.866025 0 0.5
vn 0.612372 -0.707107 -0.353553
vt 1.1651e-14 27.9582
vn 5.25627e-17 -1 -9.52699e-17
f 13/1/22 2/13/23 12/3/20

v -0.965926 0 0.258819
vn 0.683013 -0.707107 -0.183013
vt 1.21002e-14 27.9582
vn 1.31407e-17 -1 -1.11696e-16
f 14/1/24 2/14/25 13/3/22

v -1 0 -1.22465e-16
vn 0.707107 -0.707107 1.74222e-16
vt 1.34406e-14 27.9582
vn 1.31407e-17 -1 -1.1416e-16
f 15/1/26 2/15/27 14/3/24

v -0.965926 0 -0.258819
vn 0.683013 -0.707107 0.183013
vt 1.34209e-14 27.9582
vn 1.31407e-17 -1 -7.72015e-17
f 16/1/28 2/16/29 15/3/26

v -0.866025 0 -0.5
vn 0.612372 -0.707107 0.353553
vt 1.25169e-14 27.9582
vn 7.88441e-17 -1 -1.34692e-16
f 17/1/30 2/17/31 16/3/28

v -0.707107 0 -0.707107
vn 0.5 -0.707107 0.5
vt 9.48821e-15 27.9582
vn 1.9711e-17 -1 -1.31407e-16
f 18/1/32 2/18/33 17/3/30

v -0.5 0 -0.866025
vn 0.353553 -0.707107 0.612372
vt 6.70105e-15 27.9582
vn -2.29962e-17 -1 -1.05125e-16
f 19/1/34 2/19/35 18/3/32

v -0.258819 0 -0.965926
vn 0.183013 -0.707107 0.683013
vt 3.45723e-15 27.9582
vn -2.62814e-17 -1 -1.05125e-16
f 20/1/36 2/20/37 19/3/34

v 6.12323e-17 0 -1
vn -1.60285e-16 -0.707107 0.707107
vt -4.66291e-16 27.9582
vn -5.50266e-17 -1 -1.24836e-16
f 21/1/38 2/21/39 20/3/36

v 0.258819 0 -0.965926
vn -0.183013 -0.707107 0.683013
vt -3.50012e-15 27.9582
vn 1.47833e-17 -1 -1.31407e-16
f 22/1/40 2/22/41 21/3/38

v 0.5 0 -0.866025
vn -0.353553 -0.707107 0.612372
vt -6.73951e-15 27.9582
vn -3.61369e-17 -1 -7.22737e-17
f 23/1/42 2/23/43 22/3/40

v 0.707107 0 -0.707107
vn -0.5 -0.707107 0.5
vt -9.51961e-15 27.9582
vn -1.31407e-17 -1 -9.19847e-17
f 24/1/44 2/24/45 23/3/42

v 0.866025 0 -0.5
vn -0.612372 -0.707107 0.353553
vt -1.1651e-14 27.9582
vn -2.62814e-17 -1 -1.24836e-16
f 25/1/46 2/25/47 24/3/44

vt -1.21002e-14 27.9582
vn 1.31407e-17 -1 -1.67544e-16
f 3/1/3 2/26/48 25/3/46

vt 39.3701 0
vn 0 1 -0
vt 38.0286 10.1897
vt 34.0955 19.685
vt 27.8388 27.8388
vt 19.685 34.0955
vt 10.1897 38.0286
vt 2.41072e-15 39.3701
vt -10.1897 38.0286
vt -19.685 34.0955
vt -27.8388 27.8388
vt -34.0955 19.685
vt -38.0286 10.1897
vt -39.3701 4.82144e-15
vt -38.0286 -10.1897
vt -34.0955 -19.685
vt -27.8388 -27.8388
vt -19.685 -34.0955
vt -10.1897 -38.0286
vt -7.23217e-15 -39.3701
vt 10.1897 -38.0286
vt 19.685 -34.0955
vt 27.8388 -27.8388
vt 34.0955 -19.685
vt 38.0286 -10.1897
f 1/27/49 3/28/49 25/29/49 24/30/49 23/31/49 22/32/49 21/33/49 20/34/49 19/35/49 18/36/49 17/37/49 16/38/49 15/39/49 14/40/49 13/41/49 12/42/49 11/43/49 10/44/49 9/45/49 8/46/49 7/47/49 6/48/49 5/49/49 4/50/49 

